HIERARCHY
ROOT Hips
{
	OFFSET	0.00	0.00	0.00
	CHANNELS 6 Xposition Yposition Zposition Zrotation Xrotation Yrotation
	JOINT LeftUpperLeg
	{
		OFFSET	-0.060319	-0.072984	 0.002079
		CHANNELS 3 Zrotation Xrotation Yrotation
		JOINT LeftLowerLeg
		{
			OFFSET	 0.351798	-0.005146	-0.008011
			CHANNELS 3 Zrotation Xrotation Yrotation
			JOINT LeftFoot
			{
				OFFSET	 0.378666	 0.003778	 0.003828
				CHANNELS 3 Zrotation Xrotation Yrotation
				JOINT LeftToes
				{
					OFFSET	 0.084296	 0.003922	 0.047710
					CHANNELS 3 Zrotation Xrotation Yrotation
					End Site
					{
						OFFSET	 0.084296	 0.003922	 0.047710
					}
				}
			}
		}
	}
	JOINT RightUpperLeg
	{
		OFFSET	-0.060836	 0.072553	 0.002079
		CHANNELS 3 Zrotation Xrotation Yrotation
		JOINT RightLowerLeg
		{
			OFFSET	 0.351363	 0.018233	-0.008011
			CHANNELS 3 Zrotation Xrotation Yrotation
			JOINT RightFoot
			{
				OFFSET	 0.378545	 0.010315	 0.003824
				CHANNELS 3 Zrotation Xrotation Yrotation
				JOINT RightToes
				{
					OFFSET	 0.084392	-0.002027	 0.047660
					CHANNELS 3 Zrotation Xrotation Yrotation
					End Site
					{
						OFFSET	 0.084392	-0.002027	 0.047660
					}
				}
			}
		}
	}
	JOINT Character1_Spine
	{
		OFFSET	 0.022713	 0.000080	 0.008181
		CHANNELS 3 Zrotation Xrotation Yrotation
		JOINT Spine
		{
			OFFSET	 0.091343	 0.000000	 0.001755
			CHANNELS 3 Zrotation Xrotation Yrotation
			JOINT Chest
			{
				OFFSET	 0.087667	 0.000000	-0.000304
				CHANNELS 3 Zrotation Xrotation Yrotation
				JOINT LeftShoulder
				{
					OFFSET	 0.122367	-0.042227	-0.001395
					CHANNELS 3 Zrotation Xrotation Yrotation
					JOINT LeftUpperArm
					{
						OFFSET	 0.055437	-0.000001	 0.000000
						CHANNELS 3 Zrotation Xrotation Yrotation
						JOINT LeftLowerArm
						{
							OFFSET	 0.233777	-0.000011	 0.000017
							CHANNELS 3 Zrotation Xrotation Yrotation
							JOINT LeftHand
							{
								OFFSET	 0.162482	 0.000000	-0.000001
								CHANNELS 3 Zrotation Xrotation Yrotation
								JOINT LeftIndexProximal
								{
									OFFSET	 0.080750	 0.001428	 0.025713
									CHANNELS 3 Zrotation Xrotation Yrotation
									JOINT LeftIndexIntermediate
									{
										OFFSET	 0.024260	 0.001187	 0.002507
										CHANNELS 3 Zrotation Xrotation Yrotation
										JOINT LeftIndexDistal
										{
											OFFSET	 0.016097	 0.000458	 0.000118
											CHANNELS 3 Zrotation Xrotation Yrotation
											End Site
											{
												OFFSET	 0.016097	 0.000458	 0.000118
											}
										}
									}
								}
								JOINT LeftMiddleProximal
								{
									OFFSET	 0.080696	 0.006021	 0.005822
									CHANNELS 3 Zrotation Xrotation Yrotation
									JOINT LeftMiddleIntermediate
									{
										OFFSET	 0.025063	-0.003793	 0.001482
										CHANNELS 3 Zrotation Xrotation Yrotation
										JOINT LeftMiddleDistal
										{
											OFFSET	 0.019431	-0.000162	-0.000068
											CHANNELS 3 Zrotation Xrotation Yrotation
											End Site
											{
												OFFSET	 0.019431	-0.000162	-0.000068
											}
										}
									}
								}
								JOINT LeftLittleProximal
								{
									OFFSET	 0.065753	 0.002283	-0.027836
									CHANNELS 3 Zrotation Xrotation Yrotation
									JOINT LeftLittleIntermediate
									{
										OFFSET	 0.018097	 0.000014	 0.000133
										CHANNELS 3 Zrotation Xrotation Yrotation
										JOINT LeftLittleDistal
										{
											OFFSET	 0.013911	-0.000247	 0.000003
											CHANNELS 3 Zrotation Xrotation Yrotation
											End Site
											{
												OFFSET	 0.013911	-0.000247	 0.000003
											}
										}
									}
								}
								JOINT LeftRingProximal
								{
									OFFSET	 0.076793	 0.006246	-0.012626
									CHANNELS 3 Zrotation Xrotation Yrotation
									JOINT LeftRingIntermediate
									{
										OFFSET	 0.023683	-0.001098	-0.000754
										CHANNELS 3 Zrotation Xrotation Yrotation
										JOINT LeftRingDistal
										{
											OFFSET	 0.015907	 0.000860	 0.000167
											CHANNELS 3 Zrotation Xrotation Yrotation
											End Site
											{
												OFFSET	 0.015907	 0.000860	 0.000167
											}
										}
									}
								}
								JOINT LeftThumbProximal
								{
									OFFSET	 0.024761	-0.014236	 0.018266
									CHANNELS 3 Zrotation Xrotation Yrotation
									JOINT LeftThumbIntermediate
									{
										OFFSET	 0.032146	-0.001523	 0.001986
										CHANNELS 3 Zrotation Xrotation Yrotation
										JOINT LeftThumbDistal
										{
											OFFSET	 0.017566	-0.000085	-0.001004
											CHANNELS 3 Zrotation Xrotation Yrotation
											End Site
											{
												OFFSET	 0.017566	-0.000085	-0.001004
											}
										}
									}
								}
							}
						}
					}
				}
				JOINT Neck
				{
					OFFSET	 0.156851	-0.000286	 0.008298
					CHANNELS 3 Zrotation Xrotation Yrotation
					JOINT Head
					{
						OFFSET	 0.078083	 0.000000	-0.005534
						CHANNELS 3 Zrotation Xrotation Yrotation
						End Site
						{
							OFFSET	 0.078083	 0.000000	-0.005534
						}
					}
				}
				JOINT RightShoulder
				{
					OFFSET	 0.122455	 0.041994	-0.000150
					CHANNELS 3 Zrotation Xrotation Yrotation
					JOINT RightUpperArm
					{
						OFFSET	 0.055437	 0.000001	 0.000000
						CHANNELS 3 Zrotation Xrotation Yrotation
						JOINT RightLowerArm
						{
							OFFSET	 0.233779	 0.000012	 0.000017
							CHANNELS 3 Zrotation Xrotation Yrotation
							JOINT RightHand
							{
								OFFSET	 0.162480	-0.000002	-0.000001
								CHANNELS 3 Zrotation Xrotation Yrotation
								JOINT RightIndexProximal
								{
									OFFSET	 0.077459	-0.023877	 0.024774
									CHANNELS 3 Zrotation Xrotation Yrotation
									JOINT RightIndexIntermediate
									{
										OFFSET	 0.024233	 0.002008	-0.002230
										CHANNELS 3 Zrotation Xrotation Yrotation
										JOINT RightIndexDistal
										{
											OFFSET	 0.015886	 0.002643	 0.000001
											CHANNELS 3 Zrotation Xrotation Yrotation
											End Site
											{
												OFFSET	 0.015886	 0.002643	 0.000001
											}
										}
									}
								}
								JOINT RightMiddleProximal
								{
									OFFSET	 0.077341	-0.024111	 0.004360
									CHANNELS 3 Zrotation Xrotation Yrotation
									JOINT RightMiddleIntermediate
									{
										OFFSET	 0.025355	-0.001169	-0.000680
										CHANNELS 3 Zrotation Xrotation Yrotation
										JOINT RightMiddleDistal
										{
											OFFSET	 0.019416	 0.000705	-0.000417
											CHANNELS 3 Zrotation Xrotation Yrotation
											End Site
											{
												OFFSET	 0.019416	 0.000705	-0.000417
											}
										}
									}
								}
								JOINT RightLittleProximal
								{
									OFFSET	 0.065019	-0.010365	-0.027722
									CHANNELS 3 Zrotation Xrotation Yrotation
									JOINT RightLittleIntermediate
									{
										OFFSET	 0.018098	 0.000052	-0.000144
										CHANNELS 3 Zrotation Xrotation Yrotation
										JOINT RightLittleDistal
										{
											OFFSET	 0.013886	-0.000828	 0.000267
											CHANNELS 3 Zrotation Xrotation Yrotation
											End Site
											{
												OFFSET	 0.013886	-0.000828	 0.000267
											}
										}
									}
								}
								JOINT RightRingProximal
								{
									OFFSET	 0.074304	-0.019655	-0.013711
									CHANNELS 3 Zrotation Xrotation Yrotation
									JOINT RightRingIntermediate
									{
										OFFSET	 0.023458	 0.003508	-0.000008
										CHANNELS 3 Zrotation Xrotation Yrotation
										JOINT RightRingDistal
										{
											OFFSET	 0.015893	-0.000379	-0.001033
											CHANNELS 3 Zrotation Xrotation Yrotation
											End Site
											{
												OFFSET	 0.015893	-0.000379	-0.001033
											}
										}
									}
								}
								JOINT RightThumbProximal
								{
									OFFSET	 0.026339	 0.004527	 0.020861
									CHANNELS 3 Zrotation Xrotation Yrotation
									JOINT RightThumbIntermediate
									{
										OFFSET	 0.032030	-0.000602	 0.001128
										CHANNELS 3 Zrotation Xrotation Yrotation
										JOINT RightThumbDistal
										{
											OFFSET	 0.017586	-0.000153	 0.000511
											CHANNELS 3 Zrotation Xrotation Yrotation
											End Site
											{
												OFFSET	 0.017586	-0.000153	 0.000511
											}
										}
									}
								}
							}
						}
					}
				}
			}
		}
	}
}
MOTION
Frames:    4
Frame Time: 0.01666667
 0.043087	-0.057425	 0.864197	 97.686010	-0.009200	-88.620110	-178.431200	 1.053038	-0.081870	 3.357428	-3.140356	 19.513100	-7.480151	-0.390127	-45.248810	-2.826674	-1.476233	-62.555960	 170.108700	 6.762313	-4.795714	-0.804859	-0.326190	 19.628860	 9.040073	-7.813409	-39.697070	 0.003015	-0.006124	-62.519600	 0.203542	 0.000000	-4.902169	 0.264436	-1.408902	 9.360954	 1.481481	-0.823995	 13.851150	-92.919460	 18.029540	 1.691560	-70.148990	 9.363837	 18.636300	-1.375493	-6.468482	-20.450990	 16.488470	-17.791340	-4.359111	-2.686022	 11.479670	 13.861240	-17.217500	-0.385389	-0.516138	-17.353270	-0.466260	 0.628652	-3.826386	 8.297505	 8.630516	-31.067430	-2.331621	 0.982455	-26.366520	-2.391586	 7.949257	-15.800660	-14.875510	 0.716061	-9.541347	 4.340984	 7.344803	-34.313990	-2.294953	 15.594250	-12.938280	-9.362938	 4.854491	-33.381580	-0.543328	 10.437320	-20.829110	-5.046877	 7.521278	 111.736600	 49.854120	-126.323600	-19.032770	 0.543832	-9.628746	-25.348630	-0.976140	-0.758766	-3.749379	-1.176240	-23.199840	-2.266007	-0.611237	 7.916561	 89.662030	-18.084890	-0.891782	 67.783200	-2.544432	 18.400880	-0.491510	 8.493010	-16.785800	 8.244274	-0.110015	 3.941617	-174.971400	-9.551253	 171.529000	-31.897260	-0.765023	-3.927481	-3.656667	-3.353679	-1.373843	 176.698200	-7.544119	 175.926900	-41.572700	-0.978726	-7.134732	-51.993680	 1.487862	-5.715823	-167.032100	-28.279910	-175.116000	-9.062941	 0.683518	-8.047172	-38.461970	 5.871808	-21.148130	-158.412500	-25.410040	-172.808700	-14.724410	-1.090105	-12.547340	-43.814370	 3.111567	-12.954390	 49.688400	 53.765820	-56.530690	-20.810690	 3.803940	 8.623100	-30.770470	-2.362315	 9.390634
 0.043087	-0.057425	 0.864119	 97.686000	-0.009218	-88.620120	-178.437600	 1.132242	-0.090641	 3.341409	-3.134523	 19.534980	-7.486627	-0.475415	-45.269720	-2.826674	-1.476233	-62.555960	 170.099300	 6.689601	-4.807499	-0.770612	-0.334206	 19.649650	 9.035407	-7.728806	-39.717550	 0.003015	-0.006124	-62.519580	 0.203542	 0.000000	-4.902169	 0.265842	-1.408618	 9.377976	 1.480228	-0.824407	 13.766410	-92.919490	 18.029540	 1.691589	-70.155150	 9.388610	 18.520420	-1.373666	-6.481032	-20.409760	 16.472290	-17.806900	-4.437647	-2.686055	 11.479680	 13.861280	-17.217380	-0.385391	-0.516139	-17.353250	-0.466271	 0.628652	-3.826322	 8.297518	 8.630521	-31.067540	-2.331627	 0.982471	-26.366520	-2.391586	 7.949257	-15.800640	-14.875510	 0.716102	-9.541360	 4.340982	 7.344809	-34.313990	-2.294953	 15.594250	-12.938290	-9.362934	 4.854490	-33.381670	-0.543348	 10.437360	-20.829060	-5.046884	 7.521267	 111.736700	 49.854190	-126.323600	-19.032760	 0.543830	-9.628745	-25.348660	-0.976139	-0.758770	-3.750371	-1.173856	-23.163700	-2.268038	-0.610897	 7.957776	 89.662090	-18.084890	-0.891738	 67.766540	-2.518086	 18.407110	-0.501741	 8.498775	-17.031140	 8.247529	-0.133518	 3.932032	-174.971400	-9.551253	 171.529000	-31.897280	-0.765023	-3.927480	-3.656646	-3.353683	-1.373842	 176.698200	-7.544112	 175.926900	-41.572670	-0.978727	-7.134726	-51.993720	 1.487869	-5.715826	-167.032000	-28.279910	-175.115900	-9.062941	 0.683518	-8.047172	-38.461930	 5.871793	-21.148110	-158.412400	-25.410040	-172.808700	-14.724370	-1.090116	-12.547320	-43.814350	 3.111562	-12.954380	 49.688430	 53.765780	-56.530750	-20.810650	 3.803946	 8.623081	-30.770470	-2.362315	 9.390634
 0.043088	-0.057425	 0.864063	 97.686000	-0.009212	-88.620160	-178.433200	 1.172700	-0.100999	 3.318066	-3.128867	 19.557500	-7.483439	-0.522966	-45.287080	-2.826674	-1.476233	-62.555960	 170.093000	 6.638503	-4.816000	-0.747264	-0.339738	 19.664550	 9.032376	-7.669540	-39.732050	 0.003015	-0.006124	-62.519640	 0.203542	 0.000000	-4.902169	 0.266845	-1.408393	 9.390338	 1.479365	-0.824633	 13.704570	-92.919500	 18.029540	 1.691550	-70.160030	 9.406716	 18.436160	-1.372496	-6.490553	-20.379470	 16.461890	-17.817740	-4.488293	-2.686028	 11.479680	 13.861270	-17.217520	-0.385385	-0.516141	-17.353090	-0.466274	 0.628656	-3.826370	 8.297526	 8.630555	-31.067430	-2.331621	 0.982455	-26.366500	-2.391584	 7.949255	-15.800650	-14.875500	 0.716102	-9.541334	 4.340979	 7.344800	-34.314040	-2.294968	 15.594280	-12.938280	-9.362928	 4.854534	-33.381640	-0.543339	 10.437340	-20.829020	-5.046879	 7.521255	 111.736700	 49.854180	-126.323700	-19.032720	 0.543825	-9.628739	-25.348660	-0.976139	-0.758770	-3.751202	-1.172192	-23.137910	-2.269139	-0.610622	 7.984065	 89.662010	-18.084890	-0.891765	 67.757650	-2.509112	 18.411770	-0.505865	 8.502139	-17.189810	 8.250069	-0.140352	 3.923314	-174.971300	-9.551232	 171.528900	-31.897220	-0.765033	-3.927477	-3.656657	-3.353679	-1.373842	 176.698100	-7.544106	 175.926900	-41.572620	-0.978733	-7.134719	-51.993720	 1.487869	-5.715826	-167.032000	-28.279910	-175.116000	-9.062899	 0.683513	-8.047149	-38.461980	 5.871813	-21.148140	-158.412500	-25.410040	-172.808700	-14.724370	-1.090116	-12.547320	-43.814290	 3.111552	-12.954360	 49.688390	 53.765840	-56.530750	-20.810700	 3.803939	 8.623104	-30.770450	-2.362313	 9.390628
 0.043088	-0.057424	 0.864007	 97.686060	-0.009241	-88.620140	-178.443100	 1.238146	-0.105894	 3.314317	-3.125584	 19.570790	-7.492990	-0.590824	-45.301190	-2.826674	-1.476233	-62.555960	 170.086800	 6.587180	-4.824947	-0.723939	-0.345341	 19.680300	 9.029481	-7.610114	-39.746960	 0.003015	-0.006124	-62.519560	 0.203542	 0.000000	-4.902169	 0.267880	-1.408196	 9.403311	 1.478441	-0.824962	 13.639790	-92.919480	 18.029540	 1.691566	-70.165020	 9.425610	 18.348310	-1.371368	-6.500715	-20.347990	 16.452000	-17.828700	-4.537139	-2.686022	 11.479670	 13.861240	-17.217430	-0.385386	-0.516141	-17.353290	-0.466260	 0.628650	-3.826346	 8.297511	 8.630507	-31.067470	-2.331622	 0.982461	-26.366480	-2.391581	 7.949249	-15.800590	-14.875500	 0.716024	-9.541360	 4.340982	 7.344809	-34.314000	-2.294957	 15.594260	-12.938290	-9.362940	 4.854469	-33.381620	-0.543337	 10.437340	-20.829120	-5.046880	 7.521284	 111.736600	 49.854130	-126.323600	-19.032770	 0.543832	-9.628746	-25.348610	-0.976140	-0.758762	-3.752113	-1.170299	-23.110900	-2.270061	-0.610388	 8.009025	 89.662030	-18.084890	-0.891782	 67.750190	-2.505764	 18.416580	-0.508161	 8.505046	-17.343830	 8.252151	-0.141530	 3.913428	-174.971300	-9.551238	 171.529000	-31.897210	-0.765034	-3.927475	-3.656688	-3.353685	-1.373846	 176.698200	-7.544127	 175.926900	-41.572670	-0.978727	-7.134726	-51.993700	 1.487870	-5.715822	-167.032000	-28.279910	-175.115900	-9.062941	 0.683518	-8.047172	-38.461970	 5.871808	-21.148130	-158.412300	-25.410040	-172.808700	-14.724360	-1.090118	-12.547320	-43.814300	 3.111556	-12.954370	 49.688420	 53.765790	-56.530740	-20.810700	 3.803939	 8.623104	-30.770470	-2.362315	 9.390634
